<?xml version="1.0" encoding="iso-8859-1"?>
<!-- Generator: Adobe Illustrator 27.0.0, SVG Export Plug-In . SVG Version: 6.00 Build 0)  -->
<svg version="1.1" id="Warstwa_1" xmlns="http://www.w3.org/2000/svg" xmlns:xlink="http://www.w3.org/1999/xlink" x="0px" y="0px"
	 viewBox="0 0 841.89 595.276" style="enable-background:new 0 0 841.89 595.276;" xml:space="preserve">
<polygon style="fill:#E30613;" points="126.002,179.006 126.002,79.006 26.002,179.006 "/>
<polygon style="fill:#E30613;" points="167.995,119.002 167.995,179.002 127.995,179.002 127.995,79.002 "/>
<polygon style="fill:#F9B233;" points="128.002,119.006 128.002,79.006 168.002,119.006 "/>
<polygon style="fill:#E30613;" points="214.995,65.382 214.995,179.002 169.995,179.002 169.995,119.002 "/>
<polygon style="fill:#E30613;" points="251.99,107.08 251.99,179 216.99,179 216.99,65.38 "/>
<polygon style="fill:#E30613;" points="373.496,179 253.99,179 253.99,107.297 277.891,83.395 "/>
<rect x="25.998" y="166.531" style="fill:#A3195B;" width="100" height="12.5"/>
<rect x="6.427" y="128.535" transform="matrix(0.7071 -0.7071 0.7071 0.7071 -72.1512 95.3817)" style="fill:#A3195B;" width="145.268" height="12.5"/>
<rect x="99.745" y="152.781" transform="matrix(6.123234e-17 -1 1 6.123234e-17 -39.2856 278.7758)" style="fill:#A3195B;" width="40" height="12.5"/>
<rect x="101.002" y="139.002" style="fill:#A3195B;" width="25" height="12.5"/>
<rect x="115.297" y="97.167" transform="matrix(-0.7071 -0.7071 0.7071 -0.7071 171.9766 278.0681)" style="fill:#A3195B;" width="56.561" height="12.5"/>
<polygon points="151.994,233.746 151.994,251.416 131.644,231.066 131.644,213.396 "/>
<polygon style="fill:#A3195B;" points="101.002,151.502 101.002,139.002 88.502,151.502 "/>
<rect x="127.995" y="119.034" style="fill:#A3195B;" width="12.5" height="59.997"/>
<rect x="155.495" y="119.006" style="fill:#A3195B;" width="12.5" height="59.997"/>
<rect x="127.995" y="166.531" style="fill:#A3195B;" width="40" height="12.472"/>
<rect x="128.002" y="119.034" style="fill:#A3195B;" width="40" height="12.472"/>
<rect x="182.77" y="85.108" transform="matrix(-1.836970e-16 1 -1 -1.836970e-16 300.1029 -117.3871)" style="fill:#A3195B;" width="51.951" height="12.5"/>
<rect x="188.507" y="152.543" transform="matrix(-1.836970e-16 1 -1 -1.836970e-16 367.5381 -49.9519)" style="fill:#A3195B;" width="40.475" height="12.5"/>
<rect x="146.247" y="142.754" transform="matrix(6.123234e-17 -1 1 6.123234e-17 27.2409 325.2491)" style="fill:#A3195B;" width="59.997" height="12.5"/>
<rect x="160.442" y="86.019" transform="matrix(0.6428 -0.766 0.766 0.6428 0.9703 186.6197)" style="fill:#A3195B;" width="80.294" height="12.5"/>
<rect x="165.014" y="122.756" transform="matrix(0.6428 -0.766 0.766 0.6428 -29.1684 195.4599)" style="fill:#A3195B;" width="59.968" height="12.5"/>
<rect x="192.973" y="130.875" transform="matrix(-0.6428 -0.766 0.766 -0.6428 229.2038 381.1301)" style="fill:#A3195B;" width="20.982" height="12.5"/>
<path d="M131.684,253.393v60h12.5v-0.03h27.49v-59.97H131.684z M159.174,300.893h-14.99v-35.02h14.99V300.893z"/>
<path d="M206.212,214.643l-32.5,38.73v59.99h12.5v-25.37l13.33-15.89l6.67,7.95v33.34h12.5v-37.89l-2.16-2.58l-8.85-10.54
	l8.97-10.69l2.04-2.43v-49.51L206.212,214.643z M206.212,244.713l-20,23.84v-10.63l20-23.84V244.713z"/>
<rect x="216.995" y="65.382" style="fill:#A3195B;" width="12.5" height="113.62"/>
<rect x="228.795" y="96.458" transform="matrix(0.6428 0.766 -0.766 0.6428 170.7793 -139.5711)" style="fill:#A3195B;" width="12.5" height="33.751"/>
<rect x="239.49" y="136.388" style="fill:#A3195B;" width="12.5" height="42.612"/>
<rect x="229.452" y="108.844" transform="matrix(-0.766 0.6428 -0.6428 -0.766 497.7278 72.3242)" style="fill:#A3195B;" width="12.5" height="35.795"/>
<polygon points="255.711,270.768 255.741,270.808 255.741,313.378 243.241,313.378 243.241,275.358 233.251,263.448 
	233.251,313.378 220.751,313.378 220.751,199.768 233.251,214.658 233.251,244.208 233.351,244.118 247.711,232.078 
	255.741,241.648 241.391,253.698 "/>
<rect x="253.009" y="130.964" transform="matrix(-0.7071 -0.7071 0.7071 -0.7071 454.1478 462.542)" style="fill:#A3195B;" width="139.722" height="12.5"/>
<rect x="246.956" y="96.246" transform="matrix(-0.7071 0.7071 -0.7071 -0.7071 529.4987 -14.3335)" style="fill:#A3195B;" width="41.525" height="12.5"/>
<rect x="226.058" y="138.599" transform="matrix(6.123234e-17 -1 1 6.123234e-17 115.3913 405.0887)" style="fill:#A3195B;" width="68.364" height="12.5"/>
<rect x="260.522" y="132.767" style="fill:#A3195B;" width="64.561" height="12.472"/>
<path d="M290.559,226.933l-8.83-8.84l-8.84,8.84l-15.11,15.11v71.61h12.5v-33.76h55.57l33.76,33.76h17.68L290.559,226.933z
	 M270.279,267.423v-20.2l11.45-11.45l31.65,31.65H270.279z"/>
<polygon points="117.139,300.913 117.139,285.883 92.139,285.883 104.639,273.383 129.639,273.383 129.639,313.393 29.639,313.393 
	42.119,300.913 129.639,213.393 129.639,231.063 59.789,300.913 "/>
<path d="M283.14,212.18l-1.41-1.42l-1.42,1.42l-23.15,23.15l-36.21-43.14l-1.3-1.55l-1.31,1.55l-45.89,54.69l-41.81-41.81
	l-1.41,1.41L22.32,313.39h2.82l105.5-105.5l40.53,40.53l1.42,1.42l1.28-1.54l45.78-54.55l36.09,43l1.29,1.54l1.42-1.42l23.28-23.28
	l99.79,99.8h2.84L283.14,212.18z"/>
<line style="fill:none;" x1="381.52" y1="313.39" x2="25.14" y2="313.39"/>
</svg>
